<svg width="23" height="19" viewBox="0 0 23 19" fill="none" xmlns="http://www.w3.org/2000/svg">
<g id="Group 150">
<path id="Vector" d="M2.74181 10.1052C2.54381 10.201 2.45645 10.4422 2.54469 10.6484L3.44911 12.651C3.49354 12.7507 3.5746 12.8283 3.6743 12.8666C3.71798 12.883 3.7643 12.8914 3.81087 12.8914C3.86915 12.8919 3.92668 12.8791 3.97967 12.8543L10.8129 9.56221L10.194 16.2371C10.1821 16.3685 10.2311 16.4977 10.3264 16.5854C10.626 16.8412 10.9994 16.9869 11.3878 17C11.4949 16.9999 11.6014 16.986 11.7053 16.9587C12.26 16.8094 12.6901 16.2995 12.9835 15.4288L15.6726 7.21572L20.9984 4.65332C22.566 3.89886 23.3739 2.36903 22.8314 1.17495C22.5235 0.550835 21.9338 0.126278 21.2597 0.0430549C20.5108 -0.0735359 19.7453 0.0479885 19.0651 0.391529L12.9191 3.36407L6.31114 0.698196C5.47897 0.37491 4.81989 0.383219 4.35768 0.727409C3.96985 1.05563 3.74919 1.549 3.75863 2.06639C3.76266 2.19765 3.82673 2.31904 3.93146 2.39409L8.38103 5.54905L5.83281 6.79286L1.55984 5.6733C1.38475 5.62889 1.20248 5.7103 1.11374 5.87233L0.0487102 7.84983C-0.0065491 7.95461 -0.0152345 8.07899 0.0249198 8.19091C0.0648222 8.30295 0.149662 8.39163 0.257789 8.43447L3.42116 9.78202L2.74181 10.1052ZM4.58249 1.85917C4.60615 1.68389 4.69213 1.52433 4.82379 1.41137C5.05301 1.24129 5.47104 1.26622 6.02968 1.48174L11.9144 3.84913L9.22918 5.14267L4.58249 1.85917ZM0.965083 7.84581L1.66445 6.56474L5.77642 7.61769C5.86503 7.6408 5.95856 7.6321 6.04189 7.59302L19.4068 1.1543C19.9382 0.883988 20.5366 0.785574 21.1231 0.872303C21.5345 0.911383 21.9009 1.15625 22.104 1.52732C22.4413 2.27373 21.7782 3.36407 20.6566 3.90301L16.0262 6.142L16.3077 5.28354C16.3788 5.06269 16.2626 4.82406 16.0485 4.75083C15.8341 4.6776 15.6029 4.79744 15.5319 5.01829L12.2238 15.1716C12.0268 15.748 11.7816 16.0922 11.5083 16.1666C11.339 16.2002 11.1638 16.1659 11.0179 16.0714L11.8218 7.36477C11.8429 7.13588 11.6801 6.93269 11.4579 6.911C11.236 6.88906 11.039 7.0572 11.0179 7.28609L10.8934 8.61689L3.99566 11.9336L3.42922 10.6898L4.56247 10.1427C4.70836 10.0764 4.80239 9.92756 4.80239 9.76332C4.80239 9.59895 4.70836 9.45016 4.56247 9.38395L0.965083 7.84581Z" fill="black"/>
<line id="Line 65" x1="1.5" y1="18.5" x2="21.5" y2="18.5" stroke="#0063A7" stroke-linecap="round"/>
</g>
</svg>
