<svg width="30" height="27" viewBox="0 0 30 27" fill="none" xmlns="http://www.w3.org/2000/svg">
<path id="Vector" d="M30 0C30 0 25.0877 0 23.6872 0C21.5268 0 20.4138 0.832715 18.8567 2.83696C17.4889 4.59783 1.62731 24.4279 0 26.802C10.0094 27.5225 16.7664 19.6463 17.9285 18.1861L15.7938 17.5562L15.7961 17.2078L18.3306 17.0647L20.0561 14.8457L16.6098 13.302L16.4952 12.8844L21.2672 13.2566C23.257 10.7012 24.1244 10.4149 24.3652 10.6106C24.606 10.8038 24.5476 11.7463 22.5579 14.3017L23.9958 18.9616L23.5703 18.9425L21.314 15.8669L19.5862 18.0859L20.0234 20.6365L19.6914 20.7177L18.5995 18.7277C17.6853 19.8229 14.5032 24.039 16.9511 27H29.9953V0H30Z" fill="#0063A7"/>
</svg>
