<svg width="29" height="29" viewBox="0 0 29 29" fill="none" xmlns="http://www.w3.org/2000/svg">
<g id="Group 151">
<path id="Vector" d="M7.17198 9.4421C6.96422 9.36985 6.73187 9.47865 6.64848 9.68684L5.87197 11.7424C5.83288 11.8443 5.8353 11.9565 5.87872 12.0541C5.89803 12.0966 5.92482 12.1353 5.95775 12.1682C5.9986 12.2098 6.04836 12.2414 6.10337 12.2613L13.2631 14.7653L8.10556 19.0475C8.00419 19.132 7.94756 19.258 7.95287 19.3875C7.98385 19.7802 8.14484 20.1472 8.41025 20.4311C8.48608 20.5068 8.57121 20.5723 8.66392 20.6264C9.16175 20.9131 9.82641 20.8567 10.6496 20.4484L18.3586 16.5424L23.9364 18.4964C25.5784 19.0714 27.2314 18.5609 27.6921 17.333C27.9157 16.6739 27.7989 15.9567 27.3811 15.4212C26.934 14.8092 26.3068 14.3539 25.5829 14.1158L19.1351 11.8718L16.3476 5.31426C15.9878 4.49723 15.5159 4.03706 14.9456 3.95361C14.4393 3.91146 13.9344 4.1043 13.5753 4.47682C13.4853 4.57249 13.4448 4.70363 13.4658 4.83075L14.3812 10.208L11.6998 9.2856L9.47001 5.47251C9.3776 5.31731 9.19115 5.24599 9.01383 5.29781L6.86244 5.94302C6.74927 5.97804 6.65518 6.05985 6.60444 6.16738C6.55342 6.27482 6.55071 6.39751 6.59687 6.50427L7.88086 9.69397L7.17198 9.4421ZM14.3043 4.91285C14.445 4.80565 14.6186 4.75361 14.7916 4.76684C15.074 4.80865 15.3519 5.12187 15.5945 5.66929L18.0816 11.5044L15.2683 10.5203L14.3043 4.91285ZM7.51326 6.58815L8.91363 6.17682L11.0767 9.82897C11.123 9.90798 11.1953 9.96796 11.2818 9.99925L25.2851 14.8968C25.852 15.0814 26.3447 15.4349 26.6982 15.911C26.9614 16.2295 27.0474 16.6618 26.9285 17.0677C26.6393 17.8341 25.3994 18.1362 24.2253 17.7242L19.3678 16.0332L20.1739 15.6252C20.3803 15.5193 20.4669 15.2684 20.3673 15.0652C20.2675 14.8619 20.0193 14.7831 19.8129 14.8891L10.2943 19.7293C9.74734 19.9976 9.33057 20.0676 9.08473 19.927C8.94124 19.8311 8.84158 19.6829 8.80525 19.5129L15.5303 13.9249C15.707 13.7779 15.7356 13.5191 15.5938 13.3467C15.4524 13.1743 15.1942 13.1539 15.0174 13.3008L13.9884 14.1538L6.76567 11.6216L7.24464 10.3416L8.43285 10.756C8.58292 10.8123 8.75462 10.7736 8.87075 10.6574C8.98698 10.5412 9.0257 10.3695 8.96936 10.2195L7.51326 6.58815Z" fill="black"/>
<line id="Line 66" x1="4.5" y1="24.5" x2="24.5" y2="24.5" stroke="#0063A7" stroke-linecap="round"/>
</g>
</svg>
