<svg width="31" height="31" viewBox="0 0 31 31" fill="none" xmlns="http://www.w3.org/2000/svg">
<g id="Group 140">
<g id="Group">
<g id="Group_2">
<path id="Vector" d="M25.1875 0H5.81251C4.03128 0 2.58336 1.44925 2.58336 3.22915V25.1875C2.58336 26.9674 4.03134 28.4166 5.81251 28.4166H25.1875C26.9687 28.4166 28.4167 26.9674 28.4167 25.1875V3.22915C28.4167 1.44925 26.9687 0 25.1875 0ZM27.125 25.1875C27.125 26.2557 26.2557 27.125 25.1875 27.125H5.81251C4.74428 27.125 3.87501 26.2557 3.87501 25.1875V3.22915C3.87501 2.16092 4.74428 1.29165 5.81251 1.29165H25.1875C26.2557 1.29165 27.125 2.16092 27.125 3.22915V25.1875Z" fill="#0063A7"/>
</g>
</g>
<g id="Group_3">
<g id="Group_4">
<path id="Vector_2" d="M3.22915 14.2083H1.9375C1.58227 14.2083 1.29165 13.919 1.29165 13.5625V12.2708C1.29165 11.2026 2.16092 10.3333 3.22915 10.3333C3.58565 10.3333 3.875 10.044 3.875 9.68748C3.875 9.33098 3.58565 9.04163 3.22915 9.04163C1.44798 9.04163 0 10.4909 0 12.2708V13.5625C0 14.6307 0.869272 15.5 1.9375 15.5H3.22915C3.58565 15.5 3.875 15.2106 3.875 14.8541C3.875 14.4976 3.58565 14.2083 3.22915 14.2083Z" fill="#0063A7"/>
</g>
</g>
<g id="Group_5">
<g id="Group_6">
<path id="Vector_3" d="M27.7709 9.04163C27.4144 9.04163 27.125 9.33098 27.125 9.68748C27.125 10.044 27.4144 10.3333 27.7709 10.3333C28.8391 10.3333 29.7084 11.2026 29.7084 12.2708V13.5625C29.7084 13.919 29.4177 14.2083 29.0625 14.2083H27.7709C27.4144 14.2083 27.125 14.4977 27.125 14.8542C27.125 15.2107 27.4144 15.5 27.7709 15.5H29.0625C30.1307 15.5 31 14.6307 31 13.5625V12.2708C31 10.4909 29.552 9.04163 27.7709 9.04163Z" fill="#0063A7"/>
</g>
</g>
<g id="Group_7">
<g id="Group_8">
<path id="Vector_4" d="M8.39586 20.6666C7.32763 20.6666 6.45836 21.5359 6.45836 22.6041C6.45836 23.6724 7.32763 24.5416 8.39586 24.5416C9.46409 24.5416 10.3334 23.6724 10.3334 22.6041C10.3334 21.536 9.46403 20.6666 8.39586 20.6666ZM8.39586 23.25C8.04063 23.25 7.75001 22.9606 7.75001 22.6041C7.75001 22.2476 8.04063 21.9583 8.39586 21.9583C8.75109 21.9583 9.04171 22.2476 9.04171 22.6041C9.04165 22.9606 8.75103 23.25 8.39586 23.25Z" fill="#0063A7"/>
</g>
</g>
<g id="Group_9">
<g id="Group_10">
<path id="Vector_5" d="M22.6042 20.6666C21.5359 20.6666 20.6667 21.5359 20.6667 22.6041C20.6667 23.6724 21.5359 24.5416 22.6042 24.5416C23.6724 24.5416 24.5417 23.6724 24.5417 22.6041C24.5417 21.536 23.6724 20.6666 22.6042 20.6666ZM22.6042 23.25C22.2489 23.25 21.9583 22.9606 21.9583 22.6041C21.9583 22.2476 22.2489 21.9583 22.6042 21.9583C22.9594 21.9583 23.25 22.2476 23.25 22.6041C23.25 22.9606 22.9594 23.25 22.6042 23.25Z" fill="#0063A7"/>
</g>
</g>
<g id="Group_11">
<g id="Group_12">
<path id="Vector_6" d="M10.9791 27.125C10.6226 27.125 10.3333 27.4144 10.3333 27.7709V29.0625C10.3333 29.419 10.0427 29.7084 9.68744 29.7084H7.10409C6.74886 29.7084 6.45823 29.419 6.45823 29.0625V27.7709C6.45823 27.4144 6.16888 27.125 5.81238 27.125C5.45588 27.125 5.16653 27.4144 5.16653 27.7709V29.0625C5.16653 30.1307 6.0358 31 7.10403 31H9.6875C10.7557 31 11.625 30.1307 11.625 29.0625V27.7709C11.625 27.4144 11.3356 27.125 10.9791 27.125Z" fill="#0063A7"/>
</g>
</g>
<g id="Group_13">
<g id="Group_14">
<path id="Vector_7" d="M25.1875 27.125C24.831 27.125 24.5416 27.4144 24.5416 27.7709V29.0625C24.5416 29.419 24.251 29.7084 23.8958 29.7084H21.3125C20.9573 29.7084 20.6666 29.419 20.6666 29.0625V27.7709C20.6666 27.4144 20.3773 27.125 20.0208 27.125C19.6643 27.125 19.375 27.4144 19.375 27.7709V29.0625C19.375 30.1307 20.2443 31 21.3125 31H23.8959C24.9641 31 25.8334 30.1307 25.8334 29.0625V27.7709C25.8334 27.4144 25.544 27.125 25.1875 27.125Z" fill="#0063A7"/>
</g>
</g>
<g id="Group_15">
<g id="Group_16">
<path id="Vector_8" d="M22.6042 2.58337H8.39586C7.32763 2.58337 6.45836 3.45265 6.45836 4.52087C6.45836 5.5891 7.32763 6.45837 8.39586 6.45837H22.6042C23.6724 6.45837 24.5417 5.5891 24.5417 4.52087C24.5417 3.45265 23.6724 2.58337 22.6042 2.58337ZM22.6042 5.16667H8.39586C8.04063 5.16667 7.75001 4.87737 7.75001 4.52087C7.75001 4.16437 8.04063 3.87502 8.39586 3.87502H22.6042C22.9594 3.87502 23.25 4.16437 23.25 4.52087C23.25 4.87737 22.9594 5.16667 22.6042 5.16667Z" fill="#0063A7"/>
</g>
</g>
<g id="Group_17">
<g id="Group_18">
<path id="Vector_9" d="M23.8958 7.75H7.10414C6.03591 7.75 5.16664 8.61927 5.16664 9.6875V16.1459C5.16664 17.2141 6.03591 18.0834 7.10414 18.0834H23.8958C24.964 18.0834 25.8333 17.2141 25.8333 16.1459V9.6875C25.8333 8.61927 24.964 7.75 23.8958 7.75ZM24.5416 16.1459C24.5416 16.5024 24.251 16.7917 23.8958 16.7917H7.10414C6.74891 16.7917 6.45829 16.5024 6.45829 16.1459V9.6875C6.45829 9.331 6.74891 9.04165 7.10414 9.04165H23.8958C24.251 9.04165 24.5416 9.331 24.5416 9.6875V16.1459Z" fill="#0063A7"/>
</g>
</g>
</g>
</svg>
