<svg width="14" height="14" viewBox="0 0 14 14" fill="none" xmlns="http://www.w3.org/2000/svg">
<g clip-path="url(#clip0_19_354)">
<path d="M7.02734 0C3.18013 0 0 3.12539 0 6.97266C0 10.8199 3.18013 14 7.02734 14C10.8746 14 14 10.8199 14 6.97266C14 3.12539 10.8746 0 7.02734 0Z" fill="#FEDB41"/>
<path d="M14 6.97266C14 10.8199 10.8746 14 7.02734 14V0C10.8746 0 14 3.12539 14 6.97266Z" fill="#FFCC33"/>
<path d="M7.02734 1.64062C4.09057 1.64062 1.64062 4.03591 1.64062 6.97266C1.64062 9.9094 4.09057 12.3594 7.02734 12.3594C9.96412 12.3594 12.3594 9.9094 12.3594 6.97266C12.3594 4.03591 9.96412 1.64062 7.02734 1.64062Z" fill="#FEA832"/>
<path d="M12.3594 6.97266C12.3594 9.9094 9.96412 12.3594 7.02734 12.3594V1.64062C9.96412 1.64062 12.3594 4.03591 12.3594 6.97266Z" fill="#FE9923"/>
<path d="M9.33333 4C9.33333 4 8.46003 4 8.21105 4C7.82698 4 7.62913 4.14393 7.3523 4.49034C7.10914 4.79469 4.2893 8.22211 4 8.63244C5.77944 8.75698 6.9807 7.39566 7.18728 7.14328L6.80778 7.03441L6.8082 6.9742L7.25877 6.94945L7.56553 6.56592L6.95285 6.2991L6.93248 6.22694L7.78084 6.29127C8.13457 5.84959 8.28878 5.80011 8.33159 5.83392C8.37441 5.86733 8.36402 6.03022 8.01029 6.4719L8.26592 7.27731L8.19027 7.27401L7.78916 6.74243L7.48198 7.12596L7.55971 7.56681L7.50069 7.58083L7.30658 7.23689C7.14405 7.42618 6.57834 8.15488 7.01354 8.66667H9.3325V4H9.33333Z" fill="#FEDB41"/>
</g>
<defs>
<clipPath id="clip0_19_354">
<rect width="14" height="14" fill="white"/>
</clipPath>
</defs>
</svg>
