<svg width="17" height="18" viewBox="0 0 17 18" fill="none" xmlns="http://www.w3.org/2000/svg">
<g id="Group">
<g id="Group_2">
<path id="Vector" d="M14.522 6.04068V2.64407C14.522 0.691525 13.1593 0 11.878 0H4.27119C2.98983 0 1.62712 0.691525 1.62712 2.64407V6.04068C0.691525 6.28475 0 7.11864 0 8.13559V13.5864C0 15.1932 1.07797 15.8237 2.13559 15.8847V17.2678C2.13559 17.6746 2.46102 18 2.8678 18H3.62034C4.02712 18 4.35254 17.6746 4.35254 17.2678V15.8847H11.8169V17.2678C11.8169 17.6746 12.1424 18 12.5492 18H13.3017C13.7085 18 14.0339 17.6746 14.0339 17.2678V15.8847C15.6 15.8034 16.1695 14.6644 16.1695 13.5864V8.11525C16.1288 7.11864 15.4373 6.26441 14.522 6.04068ZM2.35932 2.64407C2.35932 0.976271 3.55932 0.711864 4.27119 0.711864H11.878C12.5898 0.711864 13.7898 0.955932 13.7898 2.62373V5.95932C12.6915 6.06102 11.8169 6.97627 11.8169 8.11525V8.62373H4.3322V8.11525C4.3322 6.97627 3.45763 6.06102 2.35932 5.95932V2.64407ZM11.7966 9.35593V11.878H4.3322V9.35593H11.7966ZM3.62034 17.2678H2.8678V15.8847H3.62034V17.2678ZM13.2814 17.2678H12.5288V15.8847H13.2814V17.2678ZM15.4373 13.5864H15.4169C15.4169 14.2983 15.1525 15.1729 13.8305 15.1729H13.2814H12.5288H3.62034H2.8678H2.31864C1.60678 15.1729 0.732203 14.9085 0.732203 13.5864V8.11525C0.732203 7.32203 1.38305 6.67119 2.17627 6.67119C2.96949 6.67119 3.62034 7.32203 3.62034 8.11525V12.2441C3.62034 12.4475 3.78305 12.6102 3.98644 12.6102H12.1831C12.3864 12.6102 12.5492 12.4475 12.5492 12.2441V8.11525C12.5492 7.32203 13.2 6.67119 13.9932 6.67119C14.7864 6.67119 15.4373 7.32203 15.4373 8.11525V13.5864Z" fill="black"/>
</g>
</g>
</svg>
