<svg width="26" height="18" viewBox="0 0 26 18" fill="none" xmlns="http://www.w3.org/2000/svg">
<g id="Page 2">
<g id="020   Train">
<path id="Shape" d="M24.4286 18H1.28579C0.575706 18 7.24792e-05 17.4244 7.24792e-05 16.7143V16.2857C7.24792e-05 15.5756 0.575706 15 1.28579 15H4.39764C4.09531 14.6347 3.91064 14.1865 3.86793 13.7143H3.43379C2.16939 13.7143 1.00759 13.0184 0.410912 11.9037C-0.18577 10.7889 -0.120481 9.43625 0.580788 8.38415L5.15236 1.527C5.78732 0.572007 6.85854 -0.00133346 8.00536 2.32899e-06H24.4286C25.1387 2.32899e-06 25.7144 0.575636 25.7144 1.28572V13.2857C25.7144 13.5224 25.5225 13.7143 25.2858 13.7143H14.1322C14.0895 14.1865 13.9048 14.6347 13.6025 15H24.4286C25.1387 15 25.7144 15.5756 25.7144 16.2857V16.7143C25.7144 17.4244 25.1387 18 24.4286 18ZM6.21436 15C6.95796 14.9979 7.58737 14.4504 7.6925 13.7143H4.73536C4.84054 14.4507 5.47043 14.9983 6.21436 15ZM8.56079 13.7143C8.51807 14.1865 8.3334 14.6347 8.03107 15H9.96907C9.66674 14.6347 9.48207 14.1865 9.43936 13.7143H8.56079ZM2.62893 6.85715H8.5715C8.80819 6.85715 9.00007 6.66527 9.00007 6.42857V3.42857C9.00007 3.19188 8.80819 3 8.5715 3H5.20036L2.62893 6.85715ZM24.8572 9.85715H23.5715V10.2857C23.5715 10.9958 22.9959 11.5714 22.2858 11.5714H19.2858C18.5757 11.5714 18.0001 10.9958 18.0001 10.2857V9.85715H8.14293C7.90624 9.85715 7.71436 9.66527 7.71436 9.42857C7.71436 9.19188 7.90624 9 8.14293 9H18.0001V3.42857C18.0001 2.71849 18.5757 2.14286 19.2858 2.14286H22.2858C22.9959 2.14286 23.5715 2.71849 23.5715 3.42857V9H24.8572V1.28572C24.8572 1.04902 24.6653 0.857145 24.4286 0.857145H8.00536C7.14537 0.856208 6.3421 1.28616 5.86593 2.00229L5.77207 2.14286H8.5715C9.28158 2.14286 9.85721 2.71849 9.85721 3.42857V6.42857C9.85721 7.13865 9.28158 7.71429 8.5715 7.71429H2.05721L1.29393 8.85943C1.26307 8.90486 1.24036 8.95329 1.21293 9H6.00007C6.23676 9 6.42864 9.19188 6.42864 9.42857C6.42864 9.66527 6.23676 9.85715 6.00007 9.85715H0.89493C0.770853 10.6037 0.981148 11.3671 1.47004 11.9447C1.95892 12.5224 2.677 12.8561 3.43379 12.8571H24.8572V9.85715ZM18.8572 10.2857C18.8572 10.5224 19.0491 10.7143 19.2858 10.7143H22.2858C22.5225 10.7143 22.7144 10.5224 22.7144 10.2857V3.42857C22.7144 3.19188 22.5225 3 22.2858 3H19.2858C19.0491 3 18.8572 3.19188 18.8572 3.42857V10.2857ZM13.2639 13.7143H10.3068C10.4091 14.4524 11.0402 15.002 11.7854 15.002C12.5306 15.002 13.1616 14.4524 13.2639 13.7143ZM24.8572 16.2857C24.8572 16.049 24.6653 15.8571 24.4286 15.8571H1.28579C1.04909 15.8571 0.857216 16.049 0.857216 16.2857V16.7143C0.857216 16.951 1.04909 17.1429 1.28579 17.1429H24.4286C24.6653 17.1429 24.8572 16.951 24.8572 16.7143V16.2857Z" fill="black"/>
<path id="Shape_2" d="M12.4286 2.14288H15.4286C16.1387 2.14288 16.7144 2.71852 16.7144 3.4286V6.42859C16.7144 7.13867 16.1387 7.71431 15.4286 7.71431H12.4286C11.7186 7.71431 11.1429 7.13867 11.1429 6.42859V3.4286C11.1429 2.71852 11.7186 2.14288 12.4286 2.14288ZM12.0001 6.42859C12.0001 6.66529 12.192 6.85717 12.4286 6.85717H15.4286C15.6653 6.85717 15.8572 6.66529 15.8572 6.42859V3.4286C15.8572 3.1919 15.6653 3.00003 15.4286 3.00003H12.4286C12.192 3.00003 12.0001 3.1919 12.0001 3.4286V6.42859Z" fill="black"/>
<path id="Shape_3" d="M20.1429 3.85712H21.4286C21.6653 3.85712 21.8572 4.04899 21.8572 4.28569C21.8572 4.52238 21.6653 4.71426 21.4286 4.71426H20.1429C19.9062 4.71426 19.7143 4.52238 19.7143 4.28569C19.7143 4.04899 19.9062 3.85712 20.1429 3.85712Z" fill="black"/>
<path id="Shape_4" d="M20.1429 5.57147H21.4286C21.6653 5.57147 21.8572 5.76335 21.8572 6.00004C21.8572 6.23674 21.6653 6.42862 21.4286 6.42862H20.1429C19.9062 6.42862 19.7143 6.23674 19.7143 6.00004C19.7143 5.76335 19.9062 5.57147 20.1429 5.57147Z" fill="black"/>
</g>
</g>
</svg>
