<svg width="19" height="19" viewBox="0 0 19 19" fill="none" xmlns="http://www.w3.org/2000/svg">
<g id="Group">
<path id="Vector" d="M14.5283 1.11328V0H13.415V1.11328H5.58496V0H4.47168V1.11328H0V18.0352H19V1.11328H14.5283ZM4.47168 2.22656V3.33984H5.58496V2.22656H13.415V3.33984H14.5283V2.22656H17.8867V4.45312H1.11328V2.22656H4.47168ZM1.11328 16.9219V5.56641H17.8867V16.9219H1.11328Z" fill="black"/>
<path id="Vector_2" d="M10.2169 11.1425L9.75096 13.241L10.8378 13.4824L11.4737 10.6184L13.6732 9.70129L13.2448 8.67373L11.0453 9.59089L8.56312 8.0271L7.96967 8.96901L9.78851 10.1149L7.26025 11.1691L5.86115 10.1844L5.22046 11.0949L7.12183 12.433L10.2169 11.1425Z" fill="#0063A7"/>
<path id="Vector_3" d="M4.58301 14.6953H14.417V15.8086H4.58301V14.6953Z" fill="#0063A7"/>
</g>
</svg>
