<svg width="26" height="31" viewBox="0 0 26 31" fill="none" xmlns="http://www.w3.org/2000/svg">
<g id="Group">
<path id="Vector" d="M23.022 26.7815H21.3374V0.606249C21.3374 0.271418 21.066 0 20.7312 0H4.48885C4.15402 0 3.8826 0.271418 3.8826 0.606249V26.7815H2.19795C0.986003 26.7815 0 27.7675 0 28.9794V30.3938C0 30.7286 0.271418 31 0.606249 31H24.6137C24.9485 31 25.2199 30.7286 25.2199 30.3938V28.9794C25.2199 27.7675 24.234 26.7815 23.022 26.7815ZM5.0951 1.2125H20.1249V26.7815H16.3533V21.2288C16.3533 20.8939 16.0818 20.6225 15.747 20.6225H9.473C9.13817 20.6225 8.86675 20.8939 8.86675 21.2288V26.7815H5.0951V1.2125ZM15.1408 26.7815H10.0792V21.835H15.1408V26.7815ZM24.0074 29.7875H1.2125V28.9794C1.2125 28.436 1.65457 27.994 2.19795 27.994H23.022C23.5654 27.994 24.0074 28.4361 24.0074 28.9794V29.7875Z" fill="#0063A7"/>
<path id="Vector_2" d="M14.359 7.4143H17.7024C18.0373 7.4143 18.3087 7.14288 18.3087 6.80805V3.46465C18.3087 3.12982 18.0373 2.8584 17.7024 2.8584H14.359C14.0242 2.8584 13.7528 3.12982 13.7528 3.46465V6.80805C13.7528 7.14288 14.0242 7.4143 14.359 7.4143ZM14.9653 4.0709H17.0962V6.2018H14.9653V4.0709Z" fill="#0063A7"/>
<path id="Vector_3" d="M7.51761 7.4143H10.861C11.1958 7.4143 11.4673 7.14288 11.4673 6.80805V3.46465C11.4673 3.12982 11.1958 2.8584 10.861 2.8584H7.51761C7.18278 2.8584 6.91136 3.12982 6.91136 3.46465V6.80805C6.91136 7.14288 7.18278 7.4143 7.51761 7.4143ZM8.12386 4.0709H10.2548V6.2018H8.12386V4.0709Z" fill="#0063A7"/>
<path id="Vector_4" d="M14.359 13.3345H17.7024C18.0373 13.3345 18.3087 13.063 18.3087 12.7282V9.38481C18.3087 9.04998 18.0373 8.77856 17.7024 8.77856H14.359C14.0242 8.77856 13.7528 9.04998 13.7528 9.38481V12.7282C13.7528 13.063 14.0242 13.3345 14.359 13.3345ZM14.9653 9.99106H17.0962V12.122H14.9653V9.99106Z" fill="#0063A7"/>
<path id="Vector_5" d="M7.51761 13.3345H10.861C11.1958 13.3345 11.4673 13.063 11.4673 12.7282V9.38481C11.4673 9.04998 11.1958 8.77856 10.861 8.77856H7.51761C7.18278 8.77856 6.91136 9.04998 6.91136 9.38481V12.7282C6.91136 13.063 7.18278 13.3345 7.51761 13.3345ZM8.12386 9.99106H10.2548V12.122H8.12386V9.99106Z" fill="#0063A7"/>
<path id="Vector_6" d="M14.359 19.2546H17.7024C18.0373 19.2546 18.3087 18.9831 18.3087 18.6483V15.3049C18.3087 14.9701 18.0373 14.6987 17.7024 14.6987H14.359C14.0242 14.6987 13.7528 14.9701 13.7528 15.3049V18.6483C13.7528 18.9831 14.0242 19.2546 14.359 19.2546ZM14.9653 15.9112H17.0962V18.0421H14.9653V15.9112Z" fill="#0063A7"/>
<path id="Vector_7" d="M10.861 19.2546C11.1958 19.2546 11.4673 18.9831 11.4673 18.6483V15.3049C11.4673 14.9701 11.1958 14.6987 10.861 14.6987H7.51761C7.18278 14.6987 6.91136 14.9701 6.91136 15.3049V18.6483C6.91136 18.9831 7.18278 19.2546 7.51761 19.2546H10.861ZM8.12386 15.9112H10.2548V18.0421H8.12386V15.9112Z" fill="#0063A7"/>
</g>
</svg>
