<svg width="23" height="15" viewBox="0 0 23 15" fill="none" xmlns="http://www.w3.org/2000/svg">
<g id="Group">
<g id="Group_2">
<path id="Vector" d="M19.8918 6.64592C20.5653 6.18448 21.0113 5.41689 21.0113 4.55169C21.0113 3.13631 19.8372 1.99159 18.3854 1.99159C16.9337 1.99159 15.7596 3.13631 15.7596 4.55169C15.7596 5.41689 16.201 6.18448 16.8791 6.64592C16.3011 6.84115 15.7732 7.14286 15.3273 7.53331C14.7129 7.02306 13.9893 6.63261 13.1975 6.40189C14.1577 5.83396 14.8039 4.80016 14.8039 3.62437C14.8039 1.83186 13.3158 0.380981 11.4772 0.380981C9.6387 0.380981 8.15057 1.83629 8.15057 3.62437C8.15057 4.80016 8.79224 5.83396 9.75702 6.40189C8.97428 6.63261 8.2598 7.01862 7.64998 7.52C7.204 7.13842 6.6852 6.84115 6.11634 6.65036C6.78987 6.18892 7.23585 5.42133 7.23585 4.55613C7.23585 3.14075 6.06173 1.99602 4.61001 1.99602C3.15829 1.99602 1.98417 3.14075 1.98417 4.55613C1.98417 5.42133 2.4256 6.18892 3.10368 6.65036C1.29699 7.25822 0 8.93094 0 10.8965V11.1893C0 11.1982 0.0091017 11.2071 0.0182034 11.2071H5.58389C5.55204 11.4511 5.53383 11.704 5.53383 11.9569V12.2586C5.53383 13.5631 6.61694 14.6191 7.95489 14.6191H15.0087C16.3467 14.6191 17.4298 13.5631 17.4298 12.2586V11.9569C17.4298 11.704 17.4116 11.4511 17.3797 11.2071H22.9818C22.9909 11.2071 23 11.1982 23 11.1893V10.8965C22.9909 8.9265 21.6985 7.25378 19.8918 6.64592ZM16.4877 4.54725C16.4877 3.52676 17.3387 2.69706 18.3854 2.69706C19.4321 2.69706 20.2831 3.52676 20.2831 4.54725C20.2831 5.55444 19.4503 6.37527 18.4218 6.39745C18.4082 6.39745 18.3991 6.39745 18.3854 6.39745C18.3718 6.39745 18.3627 6.39745 18.349 6.39745C17.316 6.37971 16.4877 5.55887 16.4877 4.54725ZM8.86961 3.62437C8.86961 2.22674 10.0346 1.09089 11.4681 1.09089C12.9017 1.09089 14.0667 2.22674 14.0667 3.62437C14.0667 4.9732 12.979 6.07799 11.6183 6.15342C11.5683 6.15342 11.5182 6.15342 11.4681 6.15342C11.4181 6.15342 11.368 6.15342 11.318 6.15342C9.95726 6.07799 8.86961 4.9732 8.86961 3.62437ZM2.69865 4.54725C2.69865 3.52676 3.54966 2.69706 4.59636 2.69706C5.64306 2.69706 6.49406 3.52676 6.49406 4.54725C6.49406 5.55444 5.66126 6.37527 4.63277 6.39745C4.61911 6.39745 4.61001 6.39745 4.59636 6.39745C4.58271 6.39745 4.57361 6.39745 4.55995 6.39745C3.53146 6.37971 2.69865 5.55887 2.69865 4.54725ZM5.71132 10.4927H0.737238C0.942026 8.6026 2.58033 7.12067 4.56905 7.10736C4.57816 7.10736 4.58726 7.10736 4.59636 7.10736C4.60546 7.10736 4.61456 7.10736 4.62366 7.10736C5.57024 7.1118 6.4349 7.45344 7.10388 8.00806C6.44856 8.70022 5.96161 9.55211 5.71132 10.4927ZM16.6925 12.2586C16.6925 13.1682 15.9325 13.9092 14.9996 13.9092H7.94579C7.01286 13.9092 6.25287 13.1682 6.25287 12.2586V11.9569C6.25287 9.20159 8.51009 6.94763 11.318 6.86777C11.368 6.8722 11.4226 6.8722 11.4727 6.8722C11.5228 6.8722 11.5774 6.8722 11.6274 6.86777C14.4353 6.94763 16.6925 9.20159 16.6925 11.9569V12.2586ZM17.2341 10.4927C16.9838 9.55654 16.5059 8.71796 15.8552 8.0258C16.5287 7.45788 17.4025 7.11624 18.3581 7.10736C18.3672 7.10736 18.3763 7.10736 18.3854 7.10736C18.3945 7.10736 18.4036 7.10736 18.4127 7.10736C20.4015 7.12067 22.0398 8.6026 22.2446 10.4927H17.2341Z" fill="black"/>
</g>
</g>
</svg>
