<svg width="39" height="28" viewBox="0 0 39 28" fill="none" xmlns="http://www.w3.org/2000/svg">
<path id="Vector" d="M4.64916 16.6438C4.31342 16.8016 4.16529 17.199 4.31491 17.5385L5.84849 20.8369C5.92383 21.0011 6.06129 21.129 6.23033 21.1921C6.3044 21.219 6.38294 21.2329 6.46192 21.2329C6.56074 21.2338 6.65828 21.2126 6.74814 21.1718L18.335 15.7495L17.2855 26.7435C17.2652 26.9599 17.3485 27.1726 17.51 27.3172C18.018 27.7385 18.6511 27.9784 19.3098 28C19.4914 27.9998 19.672 27.9769 19.8481 27.932C20.7887 27.6861 21.518 26.8463 22.0156 25.4121L26.5753 11.8847L35.606 7.6643C38.2642 6.42165 39.634 3.90193 38.7141 1.93521C38.192 0.907257 37.1921 0.207988 36.0491 0.0709139C34.7791 -0.121118 33.4812 0.0790399 32.3277 0.644871L21.9063 5.54083L10.7015 1.14997C9.29043 0.617499 8.17286 0.631185 7.3891 1.19809C6.73149 1.73868 6.35733 2.55129 6.37334 3.40346C6.38017 3.61965 6.48881 3.8196 6.66639 3.9432L14.2113 9.13961L9.89042 11.1882L2.64495 9.34426C2.34806 9.27112 2.03899 9.4052 1.88852 9.67208L0.0825956 12.9291C-0.011105 13.1017 -0.0258324 13.3066 0.0422552 13.4909C0.109916 13.6755 0.253775 13.8215 0.437121 13.8921L5.8011 16.1116L4.64916 16.6438ZM7.77031 3.06216C7.81043 2.77347 7.95621 2.51066 8.17947 2.32462C8.56815 2.04448 9.27699 2.08554 10.2242 2.44052L20.2026 6.33975L15.6495 8.47027L7.77031 3.06216ZM1.63644 12.9225L2.82232 10.8125L9.79479 12.5468C9.94506 12.5848 10.1036 12.5705 10.2449 12.5062L32.9072 1.9012C33.8082 1.45598 34.8229 1.29389 35.8175 1.43674C36.515 1.5011 37.1364 1.90441 37.4806 2.51558C38.0527 3.74497 36.9282 5.54083 35.0265 6.42849L27.1749 10.1162L27.6521 8.7023C27.7727 8.33855 27.5757 7.9455 27.2126 7.82489C26.8491 7.70429 26.4571 7.90166 26.3367 8.26541L20.7272 24.9884C20.3932 25.9379 19.9774 26.5048 19.514 26.6273C19.227 26.6827 18.9298 26.6263 18.6825 26.4706L20.0457 12.1302C20.0814 11.7532 19.8054 11.4185 19.4287 11.3828C19.0524 11.3467 18.7183 11.6236 18.6825 12.0006L18.4714 14.1925L6.77525 19.6554L5.81476 17.6068L7.73637 16.7056C7.98375 16.5963 8.14319 16.3513 8.14319 16.0808C8.14319 15.81 7.98375 15.565 7.73637 15.4559L1.63644 12.9225Z" fill="#0063A7"/>
</svg>
