<svg width="25" height="18" viewBox="0 0 25 18" fill="none" xmlns="http://www.w3.org/2000/svg">
<g id="Page 1">
<g id="020   Train">
<path id="Shape" d="M1.25 17.85H23.75C24.4404 17.85 25 17.2903 25 16.6V16.1833C25 15.493 24.4404 14.9333 23.75 14.9333H20.7246C21.0185 14.5782 21.1981 14.1424 21.2396 13.6833H21.6617C22.8909 13.6833 24.0205 13.0068 24.6006 11.923C25.1807 10.8392 25.1172 9.52411 24.4354 8.50123L19.9908 1.83456C19.3735 0.906093 18.332 0.348679 17.2171 0.349978H1.25C0.559644 0.349978 0 0.909622 0 1.59998V13.2666C0 13.4968 0.186548 13.6833 0.416667 13.6833H11.2604C11.3019 14.1424 11.4815 14.5782 11.7754 14.9333H1.25C0.559644 14.9333 0 15.493 0 16.1833V16.6C0 17.2903 0.559644 17.85 1.25 17.85ZM18.9583 14.9333C18.2354 14.9313 17.6235 14.399 17.5212 13.6833H20.3962C20.294 14.3993 19.6816 14.9317 18.9583 14.9333ZM16.6771 13.6833C16.7186 14.1424 16.8981 14.5782 17.1921 14.9333H15.3079C15.6018 14.5782 15.7814 14.1424 15.8229 13.6833H16.6771ZM22.4442 7.01665H16.6667C16.4365 7.01665 16.25 6.8301 16.25 6.59998V3.68331C16.25 3.45319 16.4365 3.26664 16.6667 3.26664H19.9442L22.4442 7.01665ZM0.833333 9.93331H2.08333V10.35C2.08333 11.0403 2.64298 11.6 3.33333 11.6H6.25C6.94036 11.6 7.5 11.0403 7.5 10.35V9.93331H17.0833C17.3135 9.93331 17.5 9.74676 17.5 9.51665C17.5 9.28653 17.3135 9.09998 17.0833 9.09998H7.5V3.68331C7.5 2.99296 6.94036 2.43331 6.25 2.43331H3.33333C2.64298 2.43331 2.08333 2.99296 2.08333 3.68331V9.09998H0.833333V1.59998C0.833333 1.36986 1.01988 1.18331 1.25 1.18331H17.2171C18.0532 1.1824 18.8341 1.60041 19.2971 2.29664L19.3883 2.43331H16.6667C15.9763 2.43331 15.4167 2.99296 15.4167 3.68331V6.59998C15.4167 7.29033 15.9763 7.84998 16.6667 7.84998H23L23.7421 8.96331C23.7721 9.00748 23.7942 9.05456 23.8208 9.09998H19.1667C18.9365 9.09998 18.75 9.28653 18.75 9.51665C18.75 9.74676 18.9365 9.93331 19.1667 9.93331H24.13C24.2506 10.6591 24.0462 11.4013 23.5709 11.9629C23.0956 12.5246 22.3974 12.8489 21.6617 12.85H0.833333V9.93331ZM6.66667 10.35C6.66667 10.5801 6.48012 10.7666 6.25 10.7666H3.33333C3.10321 10.7666 2.91667 10.5801 2.91667 10.35V3.68331C2.91667 3.45319 3.10321 3.26664 3.33333 3.26664H6.25C6.48012 3.26664 6.66667 3.45319 6.66667 3.68331V10.35ZM12.1046 13.6833H14.9796C14.8801 14.4009 14.2666 14.9353 13.5421 14.9353C12.8176 14.9353 12.2041 14.4009 12.1046 13.6833ZM0.833333 16.1833C0.833333 15.9532 1.01988 15.7666 1.25 15.7666H23.75C23.9801 15.7666 24.1667 15.9532 24.1667 16.1833V16.6C24.1667 16.8301 23.9801 17.0166 23.75 17.0166H1.25C1.01988 17.0166 0.833333 16.8301 0.833333 16.6V16.1833Z" fill="black"/>
<path id="Shape_2" d="M12.9167 2.43329H10C9.30964 2.43329 8.75 2.99293 8.75 3.68329V6.59995C8.75 7.29031 9.30964 7.84995 10 7.84995H12.9167C13.607 7.84995 14.1667 7.29031 14.1667 6.59995V3.68329C14.1667 2.99293 13.607 2.43329 12.9167 2.43329ZM13.3333 6.59995C13.3333 6.83007 13.1468 7.01662 12.9167 7.01662H10C9.76988 7.01662 9.58333 6.83007 9.58333 6.59995V3.68329C9.58333 3.45317 9.76988 3.26662 10 3.26662H12.9167C13.1468 3.26662 13.3333 3.45317 13.3333 3.68329V6.59995Z" fill="black"/>
<path id="Shape_3" d="M5.41667 4.09998H4.16667C3.93655 4.09998 3.75 4.28652 3.75 4.51664C3.75 4.74676 3.93655 4.93331 4.16667 4.93331H5.41667C5.64678 4.93331 5.83333 4.74676 5.83333 4.51664C5.83333 4.28652 5.64678 4.09998 5.41667 4.09998Z" fill="black"/>
<path id="Shape_4" d="M5.41667 5.76666H4.16667C3.93655 5.76666 3.75 5.95321 3.75 6.18333C3.75 6.41345 3.93655 6.6 4.16667 6.6H5.41667C5.64678 6.6 5.83333 6.41345 5.83333 6.18333C5.83333 5.95321 5.64678 5.76666 5.41667 5.76666Z" fill="black"/>
</g>
</g>
</svg>
