<svg width="27" height="31" viewBox="0 0 27 31" fill="none" xmlns="http://www.w3.org/2000/svg">
<g id="Group 139">
<g id="Group">
<g id="Group_2">
<path id="Vector" d="M18.1408 2.42188C17.8066 2.42188 17.5353 2.69313 17.5353 3.02734C17.5353 3.36156 17.8066 3.63281 18.1408 3.63281C18.475 3.63281 18.7463 3.36156 18.7463 3.02734C18.7463 2.69313 18.475 2.42188 18.1408 2.42188Z" fill="#0063A7"/>
</g>
</g>
<g id="Group_3">
<g id="Group_4">
<path id="Vector_2" d="M8.45332 2.42188C8.1191 2.42188 7.84785 2.69313 7.84785 3.02734C7.84785 3.36156 8.1191 3.63281 8.45332 3.63281C8.78754 3.63281 9.05879 3.36156 9.05879 3.02734C9.05879 2.69313 8.78754 2.42188 8.45332 2.42188Z" fill="#0063A7"/>
</g>
</g>
<g id="Group_5">
<g id="Group_6">
<path id="Vector_3" d="M25.8898 29.9758L21.8833 25.7902C23.5019 25.7322 24.801 24.3981 24.801 22.7656V4.79955C24.801 3.82129 24.4591 2.86599 23.8381 2.10957C23.2167 1.35334 22.3462 0.832217 21.3872 0.642523C19.2382 0.216152 17.0381 0 14.8477 0H11.649C9.56581 0 7.39587 0.199562 5.20007 0.638406C3.22594 1.03335 1.79316 2.7814 1.79316 4.79471V22.7656C1.79316 24.4119 3.11429 25.7545 4.75191 25.7912L0.700169 29.9732C0.530941 30.1479 0.482624 30.4068 0.577501 30.6306C0.672257 30.8545 0.891861 31 1.13502 31H5.46412C5.65823 31 5.84054 30.9069 5.95443 30.7498L7.79106 28.2148H18.857L20.6936 30.7498C20.8075 30.9069 20.9899 31 21.1839 31H25.4525C25.695 31 25.914 30.8553 26.0092 30.6324C26.1045 30.4093 26.0575 30.1511 25.8898 29.9758ZM3.0041 22.7656V4.79471C3.0041 3.35654 4.02752 2.10794 5.43748 1.82579C7.41391 1.43078 9.50235 1.21094 11.649 1.21094H14.8477C16.9591 1.21094 19.08 1.41928 21.1517 1.83027C21.8367 1.96584 22.4585 2.33808 22.9022 2.8781C23.3457 3.41836 23.59 4.10072 23.59 4.79949V22.7656C23.59 23.7672 22.7751 24.582 21.7736 24.582H4.82045C3.81894 24.582 3.0041 23.7672 3.0041 22.7656ZM5.15515 29.7891H2.56465L6.4362 25.793H8.0505L5.15515 29.7891ZM8.66844 27.0039L9.54583 25.793H17.1023L17.9796 27.0039H8.66844ZM21.4929 29.7891L18.5976 25.793H20.2097L24.0348 29.7891H21.4929Z" fill="#0063A7"/>
</g>
</g>
<g id="Group_7">
<g id="Group_8">
<path id="Vector_4" d="M21.7737 4.84375H4.82053C4.48619 4.84375 4.21506 5.11488 4.21506 5.44922V15.5C4.21506 15.8343 4.48619 16.1055 4.82053 16.1055H21.7737C22.108 16.1055 22.3791 15.8343 22.3791 15.5V5.44922C22.3791 5.11488 22.108 4.84375 21.7737 4.84375ZM12.6916 14.8945H5.42599V6.05469H12.6916V14.8945ZM21.1682 14.8945H13.9026V6.05469H21.1682V14.8945Z" fill="#0063A7"/>
</g>
</g>
<g id="Group_9">
<g id="Group_10">
<path id="Vector_5" d="M15.7189 2.42188H10.8752C10.5409 2.42188 10.2697 2.693 10.2697 3.02734C10.2697 3.36168 10.5409 3.63281 10.8752 3.63281H15.7189C16.0533 3.63281 16.3244 3.36168 16.3244 3.02734C16.3244 2.693 16.0533 2.42188 15.7189 2.42188Z" fill="#0063A7"/>
</g>
</g>
<g id="Group_11">
<g id="Group_12">
<path id="Vector_6" d="M19.9572 17.9219C18.6218 17.9219 17.5353 19.0083 17.5353 20.3438C17.5353 21.6792 18.6218 22.7656 19.9572 22.7656C21.2926 22.7656 22.3791 21.6792 22.3791 20.3438C22.3791 19.0083 21.2926 17.9219 19.9572 17.9219ZM19.9572 21.5547C19.2895 21.5547 18.7463 21.0115 18.7463 20.3438C18.7463 19.676 19.2895 19.1328 19.9572 19.1328C20.6249 19.1328 21.1682 19.676 21.1682 20.3438C21.1682 21.0115 20.6249 21.5547 19.9572 21.5547Z" fill="#0063A7"/>
</g>
</g>
<g id="Group_13">
<g id="Group_14">
<path id="Vector_7" d="M6.63693 17.9219C5.30151 17.9219 4.21506 19.0083 4.21506 20.3438C4.21506 21.6792 5.30157 22.7656 6.63693 22.7656C7.97235 22.7656 9.0588 21.6792 9.0588 20.3438C9.0588 19.0083 7.97235 17.9219 6.63693 17.9219ZM6.63693 21.5547C5.96922 21.5547 5.42599 21.0115 5.42599 20.3438C5.42599 19.676 5.96922 19.1328 6.63693 19.1328C7.30464 19.1328 7.84787 19.676 7.84787 20.3438C7.84787 21.0115 7.30464 21.5547 6.63693 21.5547Z" fill="#0063A7"/>
</g>
</g>
<g id="Group_15">
<g id="Group_16">
<path id="Vector_8" d="M15.7189 18.5273H10.8752C10.5409 18.5273 10.2697 18.7985 10.2697 19.1328C10.2697 19.4672 10.5409 19.7383 10.8752 19.7383H15.7189C16.0533 19.7383 16.3244 19.4672 16.3244 19.1328C16.3244 18.7985 16.0533 18.5273 15.7189 18.5273Z" fill="#0063A7"/>
</g>
</g>
<g id="Group_17">
<g id="Group_18">
<path id="Vector_9" d="M15.7189 20.9492H10.8752C10.5409 20.9492 10.2697 21.2203 10.2697 21.5547C10.2697 21.889 10.5409 22.1602 10.8752 22.1602H15.7189C16.0533 22.1602 16.3244 21.889 16.3244 21.5547C16.3244 21.2203 16.0533 20.9492 15.7189 20.9492Z" fill="#0063A7"/>
</g>
</g>
</g>
</svg>
